<svg width="164" height="164" fill="none" xmlns="http://www.w3.org/2000/svg"><g clip-path="url(#a)"><rect width="100" height="100" rx="12" fill="#fff"/><path fill-rule="evenodd" clip-rule="evenodd" d="M0 28.7V108a14 14 0 0 0 14 14h94a14 14 0 0 0 14-14V14a14 14 0 0 0-14-14H51v14c0 7.7-5.9 14-13.6 14h-3L24 40.5l1-11.8H0Zm89.5 11.8c-1.8-3-4-5.6-6.8-7.6s-6-3.6-9.5-4.6A40.5 40.5 0 0 0 48 29.4 29.5 29.5 0 0 0 31.3 48a43 43 0 0 0 .2 27.3 29.5 29.5 0 0 0 17 17.3c4 1.5 8.4 2.4 13.2 2.4 8.6 0 15.7-2.3 21.2-6.8s8.8-11 10-19.6H75.7c-.5 4-2 7.2-4.3 9.5-2.3 2.4-5.5 3.6-9.8 3.6-2.8 0-5-.6-7-1.9A14 14 0 0 1 50 75a22 22 0 0 1-2.4-6.6 35.1 35.1 0 0 1 0-14.4c.5-2.5 1.3-4.7 2.6-6.8 1.2-2 2.7-3.7 4.6-5 2-1.3 4.3-1.9 7.2-1.9 7.6 0 12 3.7 13.1 11.1h17.4c-.3-4.1-1.3-7.7-3-10.8Z" fill="#000"/><path d="M18.4 16.4h-4.7L13 19H10l4.7-12.8h2.5L22 19h-2.8l-1-2.6Zm-4-2.2h3.3L16 9.4l-1.5 4.8Zm11.5.3V19h-2.6V6.2h5c1 0 1.8.2 2.5.5.7.4 1.3.9 1.7 1.5.4.7.6 1.4.6 2.2 0 1.3-.5 2.3-1.3 3-.9.7-2 1-3.6 1h-2.3Zm0-2.1h2.3c.7 0 1.3-.2 1.6-.5.4-.4.6-.8.6-1.4 0-.7-.2-1.2-.6-1.6a2 2 0 0 0-1.5-.6H26v4ZM37.7 19H35V6.2h2.7V19Z" fill="#000"/></g><g clip-path="url(#b)"><path d="M157 92.3H99.3a7 7 0 0 0-7 7V157a7 7 0 0 0 7 7H157a7 7 0 0 0 7-7V99.3a7 7 0 0 0-7-7Z" fill="#3178C6"/><path fill-rule="evenodd" clip-rule="evenodd" d="M136.7 149.3v7c1.1.6 2.5 1 4 1.3a26.5 26.5 0 0 0 9.7 0c1.5-.4 2.8-.9 4-1.6a7 7 0 0 0 2.6-3 10.6 10.6 0 0 0 .4-7.8c-.4-1-1-1.8-1.7-2.5s-1.5-1.4-2.5-2c-1-.5-2-1.1-3.4-1.6l-2.5-1.1a11 11 0 0 1-1.8-1.1 5 5 0 0 1-1.2-1.2 2.5 2.5 0 0 1 0-2.7c.2-.4.6-.7 1-1l1.7-.7 2.2-.2a12.8 12.8 0 0 1 3.8.6c.7.1 1.3.4 2 .6l1.7 1v-6.6c-1-.4-2.3-.7-3.5-.9a28.1 28.1 0 0 0-9.1.3 11 11 0 0 0-4 1.6 8.3 8.3 0 0 0-3.6 7.1c0 2.2.6 4 1.8 5.4 1.2 1.6 3.1 2.7 5.5 3.8l2.6 1.2c.9.3 1.6.7 2.1 1.1.6.4 1.1.9 1.4 1.4a2.8 2.8 0 0 1 .3 3l-1 1-1.7.6-2.4.2a13.3 13.3 0 0 1-8.7-3.2h.3ZM124.9 132h9v-5.7h-25.1v5.7h9v25.7h7.1V132Z" fill="#fff"/></g><defs><clipPath id="a"><path fill="#fff" d="M0 0h122v122H0z"/></clipPath><clipPath id="b"><path fill="#fff" transform="translate(92.3 92.3)" d="M0 0h71.8v71.8H0z"/></clipPath></defs></svg>